<svg width="105" height="30" viewBox="0 0 105 30" fill="none" xmlns="http://www.w3.org/2000/svg">
<path d="M81.1405 13.5133C80.9225 11.7835 80.3562 9.94232 78.996 8.76462C78.6856 8.49685 78.342 8.267 77.9771 8.08217C75.1667 6.6604 71.6621 7.02058 69.0626 8.73619C68.1764 9.32148 67.4062 10.0655 66.6148 10.7693C66.5816 10.7978 66.5461 10.8286 66.5034 10.838C66.3162 10.876 66.0318 10.2764 65.9442 10.1461C65.738 9.83332 65.5248 9.5229 65.2665 9.25039C64.8447 8.8049 64.3494 8.42577 63.8091 8.1343C63.7783 8.11772 63.7452 8.10113 63.712 8.08454C63.6741 8.06084 63.5011 7.98265 63.2926 7.8926C62.4964 7.54664 61.6504 7.32152 60.7855 7.24333C60.6291 7.22911 60.468 7.21963 60.3092 7.21726C59.5699 7.18409 58.8258 7.24096 58.0936 7.38787C58.0628 7.39261 58.0296 7.39735 57.9988 7.40209C56.0866 7.71488 54.551 8.7504 53.1435 10.0418C52.4184 10.7101 51.5132 11.6129 50.4516 11.6176C49.2905 11.6224 48.4161 10.6911 47.4612 10.1817C47.3142 10.1035 47.1389 10.0537 46.9778 10.1058C46.5654 10.2409 46.5797 10.8001 46.5678 11.1485C46.5323 12.3735 46.5915 13.6057 46.5915 14.8332C46.5915 15.4943 46.5915 16.0275 46.5915 16.691L39.0229 23.8828L37.5585 25.2714L36.786 25.9941C36.177 26.532 35.4827 27.1055 34.8809 27.4159C32.6273 28.5817 29.7554 28.0012 29.3099 24.8046C29.2056 24.0629 29.1227 23.3093 29.1132 22.5629C29.08 19.454 29.1535 16.3427 29.0469 13.2361C28.9544 10.5181 26.6938 8.13904 24.1512 7.85232C23.2745 7.75279 23.2294 7.78834 23.2271 8.65562C23.2271 13.1247 23.2081 17.5938 23.2413 22.0629C23.2484 23.0747 23.3479 24.1032 23.5659 25.0913C23.9569 26.878 24.9 28.3614 26.637 29.0983C29.7577 30.4206 32.7648 30.1291 35.5396 28.1315C36.2007 27.6552 36.7742 27.0533 37.5325 26.3827C37.8429 27.2429 38.113 28.0249 38.3642 28.7358C38.5846 29.3566 38.8429 29.3519 39.5585 29.3732C40.5608 29.3661 41.4992 29.4087 42.4636 29.385C43.4447 29.3969 43.4612 29.2239 43.4565 28.5249L43.4423 20.7407L54.3994 10.3428C55.2643 9.51816 56.6055 9.20063 57.7714 9.28831C59.1931 9.39494 60.2287 10.1793 60.6268 11.5702C60.8921 12.4944 60.84 13.4849 60.8566 14.4375C60.9372 19.1625 60.8945 23.8212 60.8803 28.513C60.8779 29.4822 61.7926 29.3732 62.4987 29.3684C63.6267 29.3613 64.7546 29.3566 65.8826 29.3495C66.7096 29.3447 66.9607 29.1765 66.9607 28.3495C66.9607 24.3069 66.9702 20.2644 66.9536 16.2218C66.9513 15.4398 66.9678 14.6555 66.9347 13.8735C66.9015 13.0607 66.7498 12.1863 67.2688 11.4849C67.6621 10.9541 68.2166 10.5916 68.7688 10.2456C70.2474 9.31911 72.3184 8.81912 73.8587 9.91389C74.2094 10.1627 74.4961 10.4944 74.6952 10.876C75.2757 11.9991 75.3089 13.2124 75.3136 14.4233C75.3302 19.1104 75.3302 23.7951 75.3136 28.4822C75.3113 29.1362 75.5008 29.3898 76.188 29.3661C77.5245 29.3187 78.8633 29.3542 80.2022 29.3519C81.2235 29.3519 81.2922 29.3495 81.2922 28.3471C81.2922 25.8614 81.3159 23.3733 81.2969 20.8852C81.278 18.4516 81.4462 15.9303 81.1405 13.5086V13.5133Z" fill="#152F54"/>
<path d="M46.584 28.6931C46.584 29.2026 46.7641 29.3708 47.2664 29.3637C48.6527 29.34 50.0389 29.3566 51.4275 29.3566C52.4606 29.3566 52.463 29.3566 52.463 28.3021C52.463 23.243 52.4606 18.3118 52.4749 13.2527L46.5935 18.8308C46.5935 22.1601 46.5911 25.3614 46.584 28.6931Z" fill="#152F54"/>
<path d="M90.3511 20.6339C90.735 20.269 91.2397 20.0936 91.7563 20.0154C91.9885 19.9799 92.2231 19.9657 92.4506 19.9633C92.5572 19.9633 92.6639 19.9633 92.7705 19.9633C93.5762 19.9775 94.3795 19.9752 95.1851 19.9586C96.0453 19.942 96.9078 19.9349 97.7656 19.8567C98.5595 19.7856 99.3604 19.6576 100.119 19.4064C100.315 19.3401 100.507 19.2643 100.699 19.1837C100.799 19.141 100.898 19.0984 100.995 19.051C101.083 19.0107 101.199 18.9728 101.275 18.9112C101.571 18.7524 101.858 18.57 102.123 18.3662C102.389 18.1624 102.638 17.9373 102.86 17.6861C103.05 17.4752 103.22 17.2454 103.367 17.0037C104.441 15.2407 104.156 12.8663 103 11.1578C101.841 9.44931 99.9433 8.35455 97.9623 7.7811C94.2041 6.69345 89.8724 7.44225 86.946 10.0417C83.9057 12.7431 82.6854 17.1482 83.3394 21.1623C83.6901 23.3116 84.5598 25.4229 86.0763 26.9845C87.4625 28.4134 89.3322 29.3209 91.28 29.738C95.3273 30.6076 99.9481 29.3162 102.351 25.7926C102.593 25.4371 103.382 24.4585 102.972 24.0177C102.709 23.7334 102.251 24.0225 101.972 24.2902C100.128 26.0556 97.5524 27.1906 95.024 26.847C92.9648 26.5674 91.0075 25.1575 90.2492 23.2002C90.0288 22.6315 89.8393 21.9822 89.9578 21.3709C90.0123 21.0912 90.1426 20.8306 90.3487 20.6315L90.3511 20.6339ZM89.3061 19.7951C89.0573 18.3875 88.9625 16.9539 89.0194 15.5274C89.0763 14.1032 89.3037 12.6436 90.0454 11.4279C90.671 10.4019 91.6449 9.5986 92.7634 9.15548C93.8795 8.71236 95.1306 8.62705 96.306 8.88297C97.1898 9.07728 98.0713 9.4967 98.5689 10.2502C98.967 10.8521 99.0737 11.6057 99.0523 12.326C99.0192 13.3639 98.7277 14.4066 98.1424 15.2644C97.5145 16.1861 96.5785 16.8638 95.5737 17.3472L89.3108 19.7951H89.3061Z" fill="#152F54"/>
<path d="M37.5538 9.58444C37.5585 10.1152 37.5656 10.6484 37.5656 11.1792V21.2074C37.5609 22.2974 37.5561 23.1315 37.549 24.2239L43.447 18.6293C43.447 17.9065 43.447 17.4421 43.447 16.7194C43.447 15.4327 43.4778 14.1412 43.383 12.8593C43.3048 11.8119 42.8309 10.819 42.1769 10.0086C41.5063 9.17923 40.6201 8.50152 39.6201 8.12475C39.2907 7.99916 38.9495 7.89727 38.6011 7.84514C38.3689 7.80959 37.8215 7.7077 37.6367 7.91149C37.5964 7.95414 37.5775 8.01101 37.5656 8.06788C37.5135 8.29773 37.5514 8.5347 37.5514 8.76929C37.5514 9.04179 37.5514 9.3143 37.5514 9.58681L37.5538 9.58444Z" fill="#152F54"/>
<path d="M15.54 14.6839C17.6205 14.0228 19.5446 12.7219 20.6915 10.8641C21.8384 9.00632 22.118 6.56799 21.1654 4.60357C20.3171 2.85243 18.6086 1.63918 16.7745 0.992277C14.9404 0.345372 12.9713 0.203195 11.0306 0.115519C7.58278 -0.0385063 4.12787 -0.0385063 0.677711 0.115519C0.478663 0.124997 0.253549 0.146324 0.12559 0.297979C0.0142179 0.428308 0.00947869 0.615508 0.00947869 0.786121L0 28.2168C0 28.2452 0 28.2761 0 28.3045C0 28.4277 0 28.5533 0 28.6765C0 29.186 0.180091 29.3542 0.68245 29.3471C1.12557 29.34 1.62082 29.3353 2.13503 29.3353H4.31507C4.67763 29.34 5.02359 29.34 5.34349 29.34C6.37427 29.34 6.37664 29.34 6.37664 28.2855C6.37664 27.8235 6.36716 27.4088 6.35058 27.032C6.3411 24.3733 6.33399 21.6956 6.33873 19.0322L6.33399 17.3189C6.97142 16.7431 7.706 16.2882 8.51641 15.9991C8.74152 15.9185 8.99033 15.8521 9.21781 15.9303C9.49506 16.0251 9.65619 16.3071 9.79363 16.5654C11.322 19.48 12.6893 22.4776 13.8907 25.5415C14.2864 26.5533 14.6845 27.6031 15.4428 28.3803C16.2532 29.2121 17.4072 29.6457 18.5612 29.7808C19.7152 29.9182 20.8834 29.7831 22.0351 29.6267C22.2815 29.5936 22.5682 29.5319 22.6749 29.3068C22.7744 29.0983 22.6701 28.8566 22.5659 28.6505C20.2247 23.9965 17.8811 19.3402 15.54 14.6863V14.6839ZM13.5092 11.9683C12.9902 12.3593 12.9737 12.3664 11.8789 12.992L6.3174 15.9043C6.3174 15.9043 6.32214 14.4778 6.32925 13.9896C6.35768 11.902 6.33873 9.81673 6.33873 7.7291C6.33873 5.6936 6.32451 1.6226 6.32451 1.61312C6.32451 1.57046 8.47375 1.56572 8.66806 1.56809C10.1064 1.59653 11.6846 1.59179 12.9665 2.324C13.5945 2.68181 14.1916 3.16048 14.6182 3.74814C14.6987 3.85714 14.7722 3.97326 14.8409 4.08937C15.1087 4.55855 15.2793 5.0775 15.3907 5.60355C15.5637 6.42107 15.6418 7.23385 15.6158 8.03715C15.566 9.58688 14.7153 11.0229 13.5116 11.966L13.5092 11.9683Z" fill="#152F54"/>
</svg>
